<?xml version="1.0" encoding="iso-8859-1"?>
<!-- Generator: Adobe Illustrator 19.0.0, SVG Export Plug-In . SVG Version: 6.00 Build 0)  -->
<svg version="1.1" id="Layer_1" xmlns="http://www.w3.org/2000/svg" xmlns:xlink="http://www.w3.org/1999/xlink" x="0px" y="0px"
	 viewBox="0 0 512 512" style="enable-background:new 0 0 512 512;" xml:space="preserve">
<g>
	<g>
		<path d="M256,0C114.84,0,0,114.841,0,256c0,141.159,114.84,256,256,256c141.16,0,256-114.841,256-256C512,114.841,397.16,0,256,0z
			 M256,491.52C126.135,491.52,20.48,385.866,20.48,256S126.135,20.48,256,20.48c129.865,0,235.52,105.654,235.52,235.52
			S385.865,491.52,256,491.52z"/>
	</g>
</g>
<g>
	<g>
		<path d="M459.72,261.661c-0.233-0.464-5.783-11.48-14.185-21.284c-17.888-20.872-33.06-17.741-40.515-14.015
			c-11.888,5.944-17.68,20.819-23.283,35.205c-8.967,23.029-12.895,28.078-20.1,25.679c-10.057-3.353-16.745-19.524-22.12-32.517
			c-5.69-13.758-10.605-25.639-21.765-26.735c-10.328-1.01-16.912,8.846-19.073,12.088c-8.065,12.098-16.19,41.789-24.795,73.222
			c-2.253,8.234-4.833,17.663-7.368,26.375c-0.172-6.101-0.278-13.434-0.278-22.238c0-96.911-11.543-146.745-35.285-152.35
			c-9.79-2.316-19.4,3.302-25.075,14.65c-3.873,7.746-5.107,21.283-6.805,42.726c-1.688,21.295-4.825,60.934-14.485,66.389
			c-1.19,0.672-3.185,0.32-5.93-1.054c-13.425-6.713-22.302-21.146-29.435-32.745c-7.9-12.845-14.658-23.934-26.943-23.403
			c-12.615,0.554-21.412,14.749-29.042,30.006c-8.73,17.464-15.3,21.746-17.933,21.641c-4.347-0.301-11.31-11.169-14.4-20.317
			c-1.795-5.358-7.602-8.241-12.945-6.459c-5.365,1.789-8.265,7.588-6.478,12.954c10.383,31.148,28.783,33.996,32.368,34.25
			c20.507,1.464,33.457-24.409,37.708-32.909c5.95-11.9,9.635-16.365,11.372-17.999c2.385,2.452,6.053,8.419,8.848,12.964
			c8.048,13.086,19.07,31.009,37.72,40.334c11.472,5.737,20.015,3.475,25.16,0.57c19.148-10.812,22.035-47.31,24.83-82.606
			c1.08-13.639,2.422-30.611,4.71-35.183c0.942-1.888,1.88-2.978,2.48-3.515c3.245,2.714,19.08,21.659,19.08,132.055
			c0,50.724,2.055,66.792,14.895,68.519c0.732,0.097,1.435,0.149,2.12,0.149c11.9-0.001,16.68-15.568,30.865-67.399
			c7.063-25.809,15.852-57.929,22.08-67.269v-0.001c1.592,3.187,3.402,7.563,4.872,11.115c6.968,16.846,15.638,37.81,34.57,44.121
			c27.42,9.138,38.397-19.032,45.66-37.677c3.8-9.759,8.53-21.905,13.358-24.319c7.855-3.93,21.828,15.42,27.22,26.141
			c2.53,5.059,8.685,7.104,13.74,4.579C460.198,272.871,462.248,266.72,459.72,261.661z"/>
	</g>
</g>
<g>
</g>
<g>
</g>
<g>
</g>
<g>
</g>
<g>
</g>
<g>
</g>
<g>
</g>
<g>
</g>
<g>
</g>
<g>
</g>
<g>
</g>
<g>
</g>
<g>
</g>
<g>
</g>
<g>
</g>
</svg>
